<svg xmlns="http://www.w3.org/2000/svg" fill="none" viewBox="0 0 240 240" height="240" width="240">
<path fill="#AEB4BC" d="M174 48H67V31H174V48Z" opacity="0.5"></path>
<path fill="#AEB4BC" d="M174 210H67V192H174V210Z" opacity="0.5"></path>
<path fill="#AEB4BC" d="M174 192H67V187H75V163H174V192ZM174 60H161V74H67V48H174V60Z" opacity="0.2"></path>
<path fill="white" d="M196 87.2373H176.556L168.777 95.0264V87.2373H161V58.0264H196V87.2373Z" opacity="0.2"></path>
<path fill="#AEB4BC" d="M161 76.584H57.6143C54.2841 76.5841 51.5841 79.2841 51.584 82.6143V154.386C51.5841 157.716 54.2841 160.416 57.6143 160.416H183.386C186.716 160.416 189.416 157.716 189.416 154.386V87.2109H192V154.386L191.989 154.829C191.766 159.234 188.234 162.766 183.829 162.989L183.386 163H57.6143L57.1709 162.989C52.7663 162.766 49.2341 159.234 49.0107 154.829L49 154.386V82.6143C49.0001 78.0055 52.6195 74.2416 57.1709 74.0107L57.6143 74H161V76.584Z" opacity="0.5"></path>
<rect fill="#AEB4BC" rx="2.68495" height="5.6057" width="101.339" y="122.187" x="66.4629" opacity="0.5"></rect>
<rect fill="#AEB4BC" rx="2.68495" height="9.80997" width="54.8601" y="108" x="66.4629" opacity="0.5"></rect>
<path fill="#79818E" d="M84.1554 144L86.107 140.909L84.2418 137.973H85.5716L86.8497 140.114H86.8756L88.1709 137.973H89.4144L87.5319 140.909L89.5007 144H88.1709L86.7892 141.686H86.7633L85.3989 144H84.1554ZM89.814 144L91.7656 140.909L89.9003 137.973H91.2302L92.5082 140.114H92.5341L93.8294 137.973H95.0729L93.1904 140.909L95.1593 144H93.8294L92.4478 141.686H92.4219L91.0575 144H89.814ZM95.4725 144L97.4241 140.909L95.5589 137.973H96.8887L98.1668 140.114H98.1927L99.488 137.973H100.731L98.8489 140.909L100.818 144H99.488L98.1063 141.686H98.0804L96.716 144H95.4725ZM101.131 144L103.083 140.909L101.217 137.973H102.547L103.825 140.114H103.851L105.147 137.973H106.39L104.507 140.909L106.476 144H105.147L103.765 141.686H103.739L102.375 144H101.131ZM106.79 144L108.741 140.909L106.876 137.973H108.206L109.484 140.114H109.51L110.805 137.973H112.049L110.166 140.909L112.135 144H110.805L109.423 141.686H109.397L108.033 144H106.79ZM112.448 144L114.4 140.909L112.534 137.973H113.864L115.142 140.114H115.168L116.464 137.973H117.707L115.825 140.909L117.793 144H116.464L115.082 141.686H115.056L113.692 144H112.448ZM118.107 144L120.058 140.909L118.193 137.973H119.523L120.801 140.114H120.827L122.122 137.973H123.366L121.483 140.909L123.452 144H122.122L120.74 141.686H120.715L119.35 144H118.107ZM123.765 144L125.717 140.909L123.852 137.973H125.181L126.459 140.114H126.485L127.781 137.973H129.024L127.142 140.909L129.111 144H127.781L126.399 141.686H126.373L125.009 144H123.765Z"></path>
<path fill="#F0B90B" d="M67.318 91.9678L66.164 93.0836L65 91.9678L66.164 90.8423L67.318 91.9678ZM70.1378 89.2413L72.1247 91.1625L73.2888 90.037L70.1378 87L66.9869 90.0467L68.1509 91.1722L70.1378 89.2413ZM74.1116 90.8423L72.9576 91.9678L74.1217 93.0933L75.2857 91.9678L74.1116 90.8423ZM70.1378 94.6943L68.1509 92.7634L66.9869 93.8889L70.1378 96.9356L73.2888 93.8889L72.1247 92.7634L70.1378 94.6943ZM70.1378 93.0836L71.3019 91.9581L70.1378 90.8423L68.9738 91.9678L70.1378 93.0836ZM82.3803 93.2V93.1806C82.3803 92.4529 81.9789 92.0842 81.3267 91.8417C81.7281 91.6282 82.0693 91.2789 82.0693 90.6676V90.6482C82.0693 89.7944 81.3568 89.2413 80.2128 89.2413H77.5937V94.6846H80.273C81.5474 94.6943 82.3803 94.1897 82.3803 93.2ZM80.835 90.8714C80.835 91.2789 80.4938 91.4439 79.9419 91.4439H78.7979V90.2892H80.0221C80.544 90.2892 80.835 90.493 80.835 90.852V90.8714ZM81.146 93.0448C81.146 93.4523 80.8149 93.6367 80.273 93.6367H78.7979V92.4432H80.2329C80.8651 92.4432 81.146 92.6664 81.146 93.0351V93.0448ZM84.9794 94.6943V89.2413H83.735V94.6846H84.9794V94.6943ZM91.6425 94.6943V89.2413H90.4182V92.5985L87.7791 89.2413H86.6351V94.6846H87.8594V91.2304L90.5888 94.6943H91.6425ZM98.5063 94.6943L96.0879 89.2122H94.9439L92.5255 94.6943H93.8L94.3117 93.4717H96.69L97.2018 94.6943H98.5063ZM96.2485 92.4141H94.7533L95.5059 90.6482L96.2485 92.4141ZM104.417 94.6943V89.2413H103.193V92.5985L100.553 89.2413H99.4094V94.6846H100.634V91.2304L103.363 94.6943H104.417ZM110.809 93.8113L110.016 93.0448C109.575 93.4329 109.183 93.6852 108.531 93.6852C107.568 93.6852 106.895 92.909 106.895 91.9775V91.9484C106.895 91.0169 107.578 90.2504 108.531 90.2504C109.093 90.2504 109.535 90.4833 109.976 90.8617L110.769 89.9787C110.247 89.4839 109.615 89.1346 108.551 89.1346C106.825 89.1346 105.611 90.4057 105.611 91.9484V91.9678C105.611 93.5299 106.845 94.7719 108.501 94.7719C109.585 94.7816 110.227 94.4129 110.809 93.8113ZM116.097 94.6943V93.627H113.037V92.482H115.696V91.4147H113.037V90.3086H116.057V89.2413H111.812V94.6846H116.097V94.6943Z"></path>
<path fill="#F0B90B" d="M161 58V87.5156H168.777V95.3867L176.556 87.5156H196V58H161ZM178.897 76.874L187.25 71.4951V79.4775H170.546V71.4951L178.897 76.874ZM187.25 65.9541V68.4902L178.897 73.8682L170.546 68.4902V65.9541H187.25Z"></path>
<path fill="#F0B90B" d="M75 187.25V159.421H67.667V152L60.333 159.421H42V187.25H75ZM52 180.783V164H63.1885V166.794H59.5186V166.797H54.7969V176.121H60.3916V176.118H61.6895L63.1885 177.618V180.783H52ZM62.4619 174.253H58.5273V168.659H67.8506V174.253H65.0537V176.846L62.4619 174.253Z"></path>
<path fill="#79818E" d="M70.82 144.763C69.0657 143.666 68 141.743 68 139.675V133.5L74 134.5L80 133.5V139.675C80 141.743 78.9343 143.666 77.18 144.763L74 146.75L70.82 144.763ZM76.1068 137.729C76.1068 138.005 75.8829 138.229 75.6068 138.229C75.3306 138.229 75.1068 138.005 75.1068 137.729C75.1068 137.453 75.3306 137.229 75.6068 137.229C75.8829 137.229 76.1068 137.453 76.1068 137.729ZM77.4401 137.729C77.4401 138.506 76.9563 139.171 76.2734 139.437V140.951C76.2734 142.315 75.1677 143.421 73.8037 143.421C72.4397 143.421 71.334 142.315 71.334 140.951V140.92V140.917V138.253L74.0007 140.92H72.6673V140.951C72.6673 141.579 73.1761 142.088 73.8037 142.088C74.4313 142.088 74.9401 141.579 74.9401 140.951V139.437C74.2572 139.171 73.7734 138.506 73.7734 137.729C73.7734 136.716 74.5942 135.896 75.6068 135.896C76.6193 135.896 77.4401 136.716 77.4401 137.729Z" clip-rule="evenodd" fill-rule="evenodd"></path>
</svg>
